<?xml version="1.0" encoding="UTF-8" standalone="no"?>
<svg width="24px" height="24px" viewBox="0 0 24 24" version="1.1" xmlns="http://www.w3.org/2000/svg" xmlns:xlink="http://www.w3.org/1999/xlink">
    <defs></defs>
    <g id="Page-1" stroke="none" stroke-width="1" fill="none" fill-rule="evenodd">
        <g id="Desktop-HD" transform="translate(-12546.000000, -18309.000000)" fill="#999999" fill-rule="nonzero">
            <path d="M12568.6759,18309 L12547.3241,18309 C12546.5928,18309 12546,18309.5928 12546,18310.3241 L12546,18331.6759 C12546,18332.4072 12546.5928,18333 12547.3241,18333 L12558.8276,18333 L12558.8276,18323.7186 L12555.7034,18323.7186 L12555.7034,18320.0855 L12558.8276,18320.0855 L12558.8276,18317.4124 C12558.8276,18314.3131 12560.7228,18312.6248 12563.4869,18312.6248 C12564.4184,18312.6228 12565.3493,18312.6698 12566.2759,18312.7655 L12566.2759,18316.0055 L12564.3724,18316.0055 C12562.8662,18316.0055 12562.5724,18316.7172 12562.5724,18317.7683 L12562.5724,18320.0814 L12566.1724,18320.0814 L12565.7048,18323.7145 L12562.5517,18323.7145 L12562.5517,18333 L12568.6759,18333 C12569.4072,18333 12570,18332.4072 12570,18331.6759 L12570,18310.3241 C12570,18309.5928 12569.4072,18309 12568.6759,18309 Z" id="Shape"></path>
        </g>
    </g>
</svg>