<?xml version="1.0" encoding="UTF-8" standalone="no"?>
<svg width="800px" height="202px" viewBox="0 0 800 202" version="1.1" xmlns="http://www.w3.org/2000/svg" xmlns:xlink="http://www.w3.org/1999/xlink">
    <defs></defs>
    <g id="Page-1" stroke="none" stroke-width="1" fill="none" fill-rule="evenodd">
        <g id="Desktop-HD" transform="translate(-9815.000000, -18358.000000)" fill="#262626">
            <g id="Group-2" transform="translate(9673.000000, 18152.000000)">
                <path d="M723.950651,268.906574 L719.291476,268.906574 C718.126683,271.236448 714.166385,279.391003 706.478748,296.865052 L687.609092,339.967705 C670.836066,378.643599 665.943933,408 635.659301,408 C616.789646,408 606.772421,397.049596 606.772421,387.031142 C606.772421,382.138408 609.567926,378.643599 613.994141,378.643599 C622.846572,378.643599 626.107994,388.89504 638.454805,388.89504 C650.568658,388.89504 655.69375,373.517878 655.69375,363.732411 C655.69375,356.043829 654.063039,352.54902 650.568658,345.093426 L613.062306,268.906574 L595.124028,269.375712 L576.254831,269.372549 L576.254831,322.493656 C576.254831,336.00692 578.1185,340.899654 583.709509,340.899654 C591.630105,340.899654 591.863064,336.472895 597.687032,336.472895 C601.414371,336.472895 604.675793,339.50173 604.675793,344.161476 C604.675793,351.850058 595.590403,361.16955 575.555954,360.936563 C554.589671,360.703576 541.776942,353.946943 541.776942,326.221453 L541.776942,269.372549 L535.02114,269.372549 C528.731254,269.372549 526.401667,265.411765 526.401667,260.985006 C526.401667,253.762399 531.992676,252.364475 539.214396,247.005767 C560.18068,236.055363 558.782928,216.484429 572.061574,216.484429 C577.652583,216.484429 580.914005,219.513264 580.914005,225.337947 C580.914005,233.492503 573.692285,239.550173 575.090037,252.131488 L595.590403,252.131488 L661.750676,252.131488 C662.682511,253.063437 664.313222,255.39331 664.313222,259.587082 C664.313222,265.411765 660.818841,268.906574 655.460791,268.906574 L651.500493,268.906574 L678.057785,323.425606 L678.523703,323.425606 L694.597854,284.05075 C697.160399,277.99308 699.722945,271.702422 700.65478,268.906574 L695.529688,268.906574 C689.472762,268.906574 685.978381,265.411765 685.978381,259.587082 C685.978381,255.39331 687.842051,253.063437 688.773886,252.131488 L731.638288,252.131488 L782.423286,252.131488 L782.423286,279.856978 C791.508676,259.354095 805.952115,249.102653 817.600051,249.102653 C823.889936,249.102653 828.083192,252.597463 828.083192,261.217993 C828.083192,276.828143 816.435257,280.089965 801.059982,286.147636 C789.877965,290.807382 783.821038,288.943483 782.423286,295.234141 L782.423286,342.297578 L788.480212,342.297578 C793.838263,342.297578 797.332643,345.792388 797.332643,351.61707 C797.332643,355.577855 795.468974,357.907728 794.537139,359.072664 L736.530421,359.072664 C735.598586,357.907728 733.734916,355.577855 733.734916,351.61707 C733.734916,345.792388 737.462256,342.297578 742.587347,342.297578 L747.712439,342.297578 L747.712439,268.906574 L723.950651,268.906574 Z M248.22917,206 L293.423159,206 C294.354994,206.931949 296.218664,209.49481 296.218664,213.688581 C296.218664,219.746251 292.724283,223.241061 287.599192,223.241061 L281.775224,223.241061 C281.309307,228.599769 280.843389,245.374856 280.843389,269.838524 L280.843389,359.072664 L251.490592,359.072664 L175.313095,253.995386 L175.080136,253.995386 L175.080136,302.22376 C175.080136,321.794694 175.546054,336.00692 175.779012,341.831603 L183.000732,341.831603 C189.756535,341.831603 193.250915,345.326413 193.250915,351.384083 C193.250915,355.344867 191.387246,357.907728 190.455411,359.072664 L144.795504,359.072664 C143.86367,357.907728 142,355.344867 142,351.384083 C142,345.326413 145.494381,341.831603 150.619472,341.831603 L156.44344,341.831603 C156.909357,336.93887 157.375275,322.726644 157.375275,295.467128 L157.375275,223.241061 L151.08539,223.241061 C145.494381,222.542099 142.465917,219.746251 142.465917,213.688581 C142.465917,209.49481 144.329587,206.931949 145.494381,206 L189.523576,206 L262.905569,307.582468 L263.138527,307.582468 L263.138527,262.848904 C263.138527,243.044983 262.67261,229.065744 262.439651,223.241061 L255.683849,223.241061 C248.928046,223.241061 245.433666,219.746251 245.433666,213.688581 C245.433666,209.49481 247.530294,206.931949 248.22917,206 Z M408.887686,296.399077 C408.887686,301.524798 408.421769,304.786621 408.18881,306.417532 L331.778354,306.417532 C331.778354,328.551326 340.630785,344.627451 359.966358,344.627451 C378.603054,344.627451 384.427022,329.716263 393.512412,329.716263 C397.47271,329.716263 400.734132,332.046136 400.734132,337.637832 C400.734132,347.423299 383.961105,362.101499 355.540142,362.101499 C318.965625,362.101499 294.73792,342.297578 294.73792,306.184544 C294.73792,273.799308 318.033791,249.33564 356.00606,249.33564 C390.018031,249.33564 408.887686,270.071511 408.887686,296.399077 Z M332.011313,293.137255 L372.779087,293.137255 C373.012045,291.739331 373.012045,290.574394 373.012045,289.409458 C373.012045,276.129181 367.188078,264.479815 353.676473,264.479815 C341.329661,264.479815 333.642024,275.663206 332.011313,293.137255 Z M480.954918,264.013841 C466.744437,264.013841 456.028337,277.527105 456.028337,303.854671 C456.028337,328.784314 466.511478,344.394464 482.35267,344.394464 C500.057532,344.394464 504.716706,329.716263 513.336178,329.716263 C518.228311,329.716263 520.790857,332.512111 520.790857,337.637832 C521.023816,347.190311 505.8815,362.334487 476.062785,362.101499 C442.74969,361.868512 417.357191,343.695502 417.124233,306.417532 C417.124233,270.770473 442.982649,249.33564 474.432074,249.33564 C490.040308,249.33564 497.262028,253.529412 500.756408,255.39331 C501.921202,253.995386 503.784871,250.966551 508.677004,250.966551 C514.035054,250.966551 516.131683,254.694348 517.762394,262.38293 L519.859022,272.634371 C520.557898,276.362168 521.023816,280.089965 521.023816,282.652826 C521.023816,287.312572 518.46127,290.341407 513.569137,290.341407 C507.978128,290.341407 505.648541,285.914648 503.318954,281.487889 C497.727945,270.537486 491.43806,264.013841 480.954918,264.013841 Z M942,296.399077 C942,301.524798 941.534083,304.786621 941.301124,306.417532 L864.890668,306.417532 C864.890668,328.551326 873.743099,344.627451 893.078672,344.627451 C911.715368,344.627451 917.539336,329.716263 926.624725,329.716263 C930.585023,329.716263 933.846445,332.046136 933.846445,337.637832 C933.846445,347.423299 917.073418,362.101499 888.652456,362.101499 C852.077939,362.101499 827.850234,342.297578 827.850234,306.184544 C827.850234,273.799308 851.146104,249.33564 889.118374,249.33564 C923.130345,249.33564 942,270.071511 942,296.399077 Z M865.123627,293.137255 L905.8914,293.137255 C906.124359,291.739331 906.124359,290.574394 906.124359,289.409458 C906.124359,276.129181 900.300392,264.479815 886.788787,264.479815 C874.441975,264.479815 866.754338,275.663206 865.123627,293.137255 Z" id="Combined-Shape"></path>
            </g>
        </g>
    </g>
</svg>