<svg width="13px" height="9px" viewBox="0 0 13 9" version="1.1" xmlns="http://www.w3.org/2000/svg" xmlns:xlink="http://www.w3.org/1999/xlink"><defs/><g id="Page-1" stroke="none" stroke-width="1" fill="currentColor" fill-rule="evenodd"><path d="M12.353,4.14625 L8.353,0.14625 C8.158,-0.04875 7.841,-0.04875 7.646,0.14625 C7.451,0.34125 7.451,0.65825 7.646,0.85325 L10.793,3.99925 L0.5,3.99925 C0.224,3.99925 0,4.22325 0,4.49925 C0,4.77525 0.224,4.99925 0.5,4.99925 L10.793,4.99925 L7.647,8.14625 C7.452,8.34125 7.452,8.65825 7.647,8.85325 C7.745,8.95125 7.873,8.99925 8,8.99925 C8.127,8.99925 8.256,8.95025 8.353,8.85225 L12.353,4.85225 C12.548,4.65725 12.548,4.34025 12.353,4.14525 L12.353,4.14625 Z" id="Shape" fill="#262626" fill-rule="nonzero"/></g></svg>