<?xml version="1.0" encoding="UTF-8" standalone="no"?>
<svg width="30px" height="24px" viewBox="0 0 30 24" version="1.1" xmlns="http://www.w3.org/2000/svg" xmlns:xlink="http://www.w3.org/1999/xlink">
    <defs></defs>
    <g id="Page-1" stroke="none" stroke-width="1" fill="none" fill-rule="evenodd">
        <g id="Desktop-HD" transform="translate(-12496.000000, -18309.000000)" fill="#999999" fill-rule="nonzero">
            <path d="M12505.4344,18333 C12516.7552,18333 12522.9472,18323.7658 12522.9472,18315.7579 C12522.9472,18315.4956 12522.9472,18315.2345 12522.9292,18314.9746 C12524.1338,18314.1167 12525.1736,18313.0546 12526,18311.8378 C12524.8767,18312.3279 12523.685,18312.6493 12522.4648,18312.7912 C12523.7497,18312.0339 12524.7113,18310.8428 12525.1708,18309.4395 C12523.9626,18310.1453 12522.6408,18310.6428 12521.2624,18310.9104 C12519.3545,18308.913 12516.3229,18308.4241 12513.8675,18309.7179 C12511.4121,18311.0117 12510.1435,18313.7663 12510.7732,18316.4372 C12505.8243,18316.1929 12501.2134,18313.8916 12498.088,18310.1058 C12496.4543,18312.8747 12497.2888,18316.417 12499.9936,18318.1952 C12499.0141,18318.1666 12498.0559,18317.9065 12497.2,18317.4367 C12497.2,18317.4615 12497.2,18317.4875 12497.2,18317.5135 C12497.2008,18320.3981 12499.2661,18322.8827 12502.138,18323.4539 C12501.2318,18323.6972 12500.2811,18323.7327 12499.3588,18323.5578 C12500.1651,18326.0264 12502.4759,18327.7175 12505.1092,18327.7662 C12502.9297,18329.4526 12500.2373,18330.3681 12497.4652,18330.3654 C12496.9755,18330.3644 12496.4862,18330.3352 12496,18330.2779 C12498.8148,18332.0563 12502.0899,18332.9997 12505.4344,18332.9953" id="Shape"></path>
        </g>
    </g>
</svg>