<?xml version="1.0" encoding="utf-8"?>
<!-- Generator: Adobe Illustrator 21.0.0, SVG Export Plug-In . SVG Version: 6.00 Build 0)  -->
<svg version="1.1" id="Layer_1" xmlns="http://www.w3.org/2000/svg" xmlns:xlink="http://www.w3.org/1999/xlink" x="0px" y="0px"
	 viewBox="0 0 108 28" style="enable-background:new 0 0 108 28;" xml:space="preserve">
<g id="Group">
	<path id="ellthy" d="M31.8,21.7c-4,0-6.7-2.8-6.7-6.3c0-5.3,4.3-9.4,9.3-9.4c3,0,4.6,1.6,4.6,3.3c0,3-2.6,5.5-8.5,6.6
		c0,2.6,1.5,3.7,3.5,3.7c1.2,0,3-0.9,4.1-2l0.5,1.3C37.2,20.5,35,21.7,31.8,21.7z M30.6,14.4c3.5-1,4.6-3.8,4.7-5.1
		c0-0.9-0.4-1.4-1-1.4C32.7,7.9,31.2,10.1,30.6,14.4z M45.4,21.5c1.6,0,2.9-0.6,3.8-1.3v-1.3c-0.3,0.3-1,0.7-1.4,0.7
		c-0.8,0-0.8-0.6-0.6-1.5l3.1-18l-7.8,0.8L42.3,2c2.1,0,2.3,0.4,1.7,4.3L42,17.4C41.7,19.6,42.7,21.5,45.4,21.5z M56,21.5
		c1.6,0,2.9-0.6,3.8-1.3v-1.3c-0.3,0.3-1,0.7-1.4,0.7c-0.8,0-0.8-0.6-0.6-1.5l3.1-18l-7.8,0.8L53,2c2.1,0,2.3,0.4,1.7,4.3l-1.9,11.1
		C52.3,19.6,53.3,21.5,56,21.5z M67.3,21.5c2.5,0,4.1-1,5.2-2.1l-0.1-1.5c-1.2,1.1-2,1.5-2.6,1.5c-1,0-1.3-0.8-0.9-2.7l1.5-8.6h3.2
		l0.2-1.6h-3.1l0.7-4h-5.2l-0.7,4H63l-0.2,1.6h2.5l-1.5,8.5C63.3,19.7,64.6,21.5,67.3,21.5z M87.7,21.5c-2.3,0-3.4-1.4-3.4-3.2
		c0-1.4,1.5-6.9,1.5-8c0-1-0.4-1.3-1-1.3c-1,0-3.1,2-3.8,6l-1.1,6.3h-5.2l2.6-14.9C78,2.4,77.8,2,75.7,2l0.2-1.2L83.6,0l-1.7,9.4
		C83.2,7.3,85.3,6,87.2,6c2.4,0,3.7,1.7,3.7,4.3c0,1.8-1.6,7.4-1.6,8.5c0,0.5,0.1,0.9,0.7,0.9c0.4,0,1.1-0.4,1.4-0.7v1.3
		C90.6,20.9,89.2,21.5,87.7,21.5z M92.6,28c-2.8,0-3.8-1.5-3.6-2.6c0.2-0.8,0.8-1.2,1.5-1.1c1.1,0.1,0.6,1.5,3.1,1.5
		c1.3,0,3-0.9,4.8-2.3C98.2,11.1,96.8,9,95.2,9c-0.5,0-0.8,0.3-1.2,0.9L93.3,9c0.8-1.7,2.2-2.9,4.1-2.9c3.9,0,5.3,3.3,5.4,12.5
		c1.7-2.5,2.8-5.3,2.8-7.8c0-2.4-1.4-2.8-1.2-3.9c0.1-0.5,0.6-1.1,1.3-1.1c1.3,0,2.2,1.2,2.2,4.4C108,17.6,99.6,28,92.6,28z"/>
	<path id="w" d="M24.1,7.2c0-0.7-0.2-2.1-2.2-2.1c-1.4,0-2.2,1-2.2,2.1c0,0.5,0.2,1.1,0.7,1.6c0.4,0.4,0.5,0.6,0.5,1.1
		c0,1.4-2.4,6.3-3.3,8.1c0-0.4-0.1-1.7-0.2-2.2L16,5.4h-3.8c0,0-4.1,10.5-4.5,12.2c-0.1-3.2-0.8-9-1-10.3c-0.2-1-0.4-2.1-2.3-2.1
		C2.6,5.1,1.2,6.4,0,8.5l0.5,0.4C0.7,8.6,1.4,7.5,2,7.5c0.4,0,0.5,0.3,0.5,0.8l1.8,13.1l3.9-0.3l3.7-9.9c0.3-0.9,0.4-1.3,0.6-1.9
		c0,0.4,0,1.3,0.2,2.2l1.3,10l3.2-0.3c0,0,2.8-4.3,4.9-8.6C22.7,11.6,24.1,9.1,24.1,7.2z"/>
</g>
</svg>
