<?xml version="1.0" encoding="utf-8"?>
<!-- Generator: Adobe Illustrator 21.0.0, SVG Export Plug-In . SVG Version: 6.00 Build 0)  -->
<svg version="1.1" id="Layer_1" xmlns="http://www.w3.org/2000/svg" xmlns:xlink="http://www.w3.org/1999/xlink" x="0px" y="0px"
	 viewBox="0 0 121 28" style="enable-background:new 0 0 121 28;" xml:space="preserve">
<path d="M28.4,6.5h-6.9v1.2c1.9,0,2,0.9,1.5,2.4l-2.1,6l-3.5-9.6h-3.2l-3.5,9.6l-2.1-6C7.9,8.7,8,7.8,10,7.8V6.5H0v1.2
	c1.3,0,2.3,0.7,3,2.4l4.4,11.2h3.2l3.5-8.7l3.5,8.7h3.2l4.5-11.2c0.4-1.4,1.7-2.4,3.1-2.4V6.5z"/>
<path d="M37.6,19.3c-3,0-3.6-1.8-3.6-5.4v-0.4h8.5c0.2-0.5,0.2-1.1,0.2-1.6c0-2.6-2-5.9-6.7-5.9c-4.2,0-7.6,3.4-7.6,7.5
	c0,0.1,0,0.2,0,0.2c0,4.5,3,7.9,7.6,7.9c2.6,0.1,5.2-0.9,7.1-2.6L42,17.5C40.8,18.6,39.2,19.3,37.6,19.3z M36.2,8
	c1.1,0,1.7,0.7,1.7,2.7c0,0.3,0,0.6-0.1,1h-3.7C34.4,9,35.1,8,36.2,8z"/>
<path d="M52.7,16.1V0l-7.7,0.8V2c1.9,0,2.4,0.6,2.4,4v10.1c0,3.4-0.5,4-2.2,4v1.2h9.8V20C53.2,20,52.7,19.5,52.7,16.1z"/>
<path d="M64.3,16.1V0l-7.7,0.8V2c1.9,0,2.4,0.6,2.4,4v10.1c0,3.4-0.5,4-2.2,4v1.2h9.8V20C64.8,20,64.3,19.5,64.3,16.1z"/>
<path d="M77.2,19c-1.1,0-1.5-0.8-1.5-2.2V8.4h3.6V6.5h-3.6V2.2h-2.1c-0.3,2.6-2.2,4.3-5.4,4.6v1.6h2.2v8.4c0,3,1.7,4.7,4.8,4.7
	c1.8,0,3.5-0.8,4.7-2.2l-0.6-1.3C78.6,18.6,77.9,19,77.2,19z"/>
<path d="M99.6,16.1v-4.2c0-3.3-2-5.9-5.5-5.9c-2.1-0.1-4.1,1-5.3,2.8V0L81,0.8V2c2,0,2.4,0.6,2.4,4v10.1c0,3.4-0.5,4-2.1,4v1.2h9.5
	V20c-1.6,0-2.1-0.6-2.1-4v-3.1c0-2.4,1.3-4.3,3.1-4.3c1.9,0,2.4,1.4,2.4,3.9v3.5c0,3.4-0.5,4-2.1,4v1.2h9.8V20
	C100.1,20,99.6,19.5,99.6,16.1z"/>
<path d="M114,6.5v1.2c1.7,0,2.1,0.8,1.5,2.4l-2.5,5.7l-2.8-5.7c-0.8-1.6-0.3-2.4,1.6-2.4V6.5h-10.1v1.2c1.2,0,2.1,0.5,3,2.4
	l5.5,11.1l-0.4,0.8c-0.5,1.1-1.5,1.9-2.7,2.2c-0.8,0.2-1.4,1-1.5,1.9c0,1,0.8,1.8,1.8,1.8c0,0,0,0,0,0c1.2,0,2-0.7,3.5-3.7l7-14.2
	c0.8-1.6,1.8-2.4,3.1-2.4V6.5H114z"/>
</svg>
